<svg width="1143" height="594" viewBox="0 0 1143 594" fill="none" xmlns="http://www.w3.org/2000/svg">
<path fill-rule="evenodd" clip-rule="evenodd" d="M1095 168C1107.22 168 1117 158.301 1117 146.5C1117 134.699 1107.22 125 1095 125C1082.78 125 1073 134.699 1073 146.5C1073 158.301 1082.78 168 1095 168ZM1095 172C1109.36 172 1121 160.583 1121 146.5C1121 132.417 1109.36 121 1095 121C1080.64 121 1069 132.417 1069 146.5C1069 160.583 1080.64 172 1095 172Z" fill="#1868B7"/>
<path d="M1028.5 16C998.4 16 974 40.6243 974 71H1083C1083 40.6243 1058.6 16 1028.5 16Z" fill="#2BCDE4"/>
<path fill-rule="evenodd" clip-rule="evenodd" d="M150 466C170.987 466 188 448.987 188 428C188 407.013 170.987 390 150 390C129.013 390 112 407.013 112 428C112 448.987 129.013 466 150 466ZM150 471C173.748 471 193 451.748 193 428C193 404.252 173.748 385 150 385C126.252 385 107 404.252 107 428C107 451.748 126.252 471 150 471Z" fill="#2BCDE4"/>
<path d="M1011.05 333.272C1012.64 333.272 1013.92 331.868 1013.92 330.136C1013.92 328.404 1012.64 327 1011.05 327C1009.46 327 1008.17 328.404 1008.17 330.136C1008.17 331.868 1009.46 333.272 1011.05 333.272Z" fill="#2BCDE4"/>
<path d="M915.136 553.322C916.868 553.322 918.272 551.917 918.272 550.185C918.272 548.453 916.868 547.049 915.136 547.049C913.404 547.049 912 548.453 912 550.185C912 551.917 913.404 553.322 915.136 553.322Z" fill="#2BCDE4"/>
<path fill-rule="evenodd" clip-rule="evenodd" d="M914.633 549.605C914.028 550.171 913.998 551.12 914.564 551.725L914.654 551.821C915.221 552.425 916.17 552.455 916.774 551.888C917.378 551.321 917.408 550.371 916.841 549.768L916.753 549.674C916.187 549.069 915.237 549.038 914.633 549.605ZM922.058 557.087C921.501 557.7 921.547 558.649 922.16 559.206L922.355 559.383C922.969 559.939 923.917 559.892 924.473 559.278C925.029 558.664 924.982 557.715 924.368 557.159L924.177 556.986C923.564 556.429 922.616 556.474 922.058 557.087ZM930.161 564.031C929.656 564.688 929.778 565.629 930.434 566.135L930.643 566.296C931.3 566.8 932.242 566.676 932.746 566.019C933.25 565.361 933.126 564.42 932.469 563.916L932.265 563.759C931.609 563.253 930.667 563.375 930.161 564.031ZM938.802 570.294C938.351 570.99 938.55 571.918 939.245 572.369L939.466 572.512C940.162 572.961 941.091 572.761 941.54 572.065C941.989 571.369 941.789 570.44 941.093 569.991L940.877 569.851C940.181 569.401 939.253 569.599 938.802 570.294ZM947.925 575.832C947.532 576.562 947.806 577.471 948.536 577.864L948.768 577.988C949.498 578.379 950.407 578.103 950.798 577.373C951.189 576.642 950.913 575.733 950.183 575.342L949.956 575.221C949.226 574.829 948.317 575.102 947.925 575.832ZM957.469 580.604C957.138 581.364 957.486 582.248 958.245 582.579L958.487 582.683C959.247 583.013 960.13 582.664 960.459 581.904C960.789 581.144 960.44 580.26 959.679 579.931L959.444 579.828C958.684 579.497 957.8 579.845 957.469 580.604ZM967.374 584.576C967.106 585.36 967.525 586.212 968.31 586.479C968.393 586.508 968.476 586.536 968.559 586.564C969.344 586.83 970.195 586.409 970.461 585.625C970.727 584.84 970.306 583.988 969.521 583.723L969.278 583.64C968.493 583.373 967.641 583.792 967.374 584.576ZM977.572 587.718C977.37 588.521 977.858 589.336 978.662 589.538L978.917 589.602C979.721 589.802 980.535 589.313 980.735 588.509C980.935 587.705 980.446 586.891 979.642 586.691L979.392 586.628C978.589 586.427 977.774 586.914 977.572 587.718ZM987.995 590.009C987.86 590.826 988.413 591.598 989.231 591.733L989.491 591.776C990.309 591.909 991.079 591.355 991.213 590.537C991.346 589.719 990.791 588.948 989.974 588.815L989.836 588.793L989.719 588.773C988.902 588.638 988.13 589.192 987.995 590.009ZM998.571 591.437C998.504 592.262 999.118 592.987 999.944 593.054L1000.08 593.066L1000.21 593.076C1001.03 593.142 1001.76 592.526 1001.82 591.7C1001.89 590.874 1001.27 590.151 1000.45 590.085L1000.33 590.076L1000.19 590.064C999.363 589.997 998.639 590.611 998.571 591.437ZM1009.23 591.998C1009.23 592.827 1009.9 593.499 1010.73 593.5L1010.99 593.5C1011.81 593.499 1012.49 592.827 1012.49 591.999C1012.48 591.17 1011.81 590.499 1010.98 590.5L1010.73 590.5C1009.9 590.499 1009.23 591.17 1009.23 591.998ZM1009.36 330.136C1009.36 330.965 1010.03 331.636 1010.86 331.636L1010.98 331.636C1011.81 331.637 1012.48 330.966 1012.49 330.138C1012.49 329.309 1011.81 328.637 1010.99 328.636L1010.86 328.636C1010.03 328.636 1009.36 329.308 1009.36 330.136ZM1019.51 330.41C1019.44 331.236 1020.06 331.957 1020.89 332.021L1021.14 332.04C1021.96 332.105 1022.68 331.489 1022.75 330.663C1022.81 329.837 1022.2 329.115 1021.37 329.049L1021.12 329.03C1020.29 328.966 1019.57 329.584 1019.51 330.41ZM1019.51 591.726C1019.57 592.552 1020.29 593.17 1021.12 593.106L1021.37 593.087C1022.2 593.021 1022.81 592.299 1022.75 591.473C1022.68 590.647 1021.96 590.031 1021.14 590.096L1020.89 590.115C1020.06 590.179 1019.44 590.9 1019.51 591.726ZM1029.72 331.482C1029.59 332.301 1030.15 333.068 1030.97 333.196L1031.21 333.235C1032.03 333.365 1032.8 332.807 1032.93 331.989C1033.06 331.171 1032.5 330.402 1031.68 330.272L1031.43 330.232C1030.61 330.104 1029.84 330.664 1029.72 331.482ZM1029.72 590.654C1029.84 591.472 1030.61 592.032 1031.43 591.904L1031.68 591.864C1032.5 591.734 1033.06 590.966 1032.93 590.147C1032.8 589.329 1032.03 588.771 1031.21 588.901L1030.97 588.94C1030.15 589.068 1029.59 589.836 1029.72 590.654ZM1039.82 333.357C1039.62 334.163 1040.12 334.972 1040.93 335.165L1041.17 335.222C1041.97 335.417 1042.78 334.921 1042.98 334.116C1043.17 333.311 1042.68 332.5 1041.87 332.306L1041.62 332.247C1040.82 332.054 1040.01 332.551 1039.82 333.357ZM1039.82 588.779C1040.01 589.585 1040.82 590.082 1041.62 589.889L1041.87 589.83C1042.68 589.636 1043.17 588.825 1042.98 588.02C1042.78 587.215 1041.97 586.719 1041.17 586.914L1040.93 586.971C1040.12 587.164 1039.62 587.973 1039.82 588.779ZM1049.73 336.025C1049.48 336.813 1049.91 337.659 1050.69 337.915L1050.93 337.992C1051.72 338.249 1052.56 337.82 1052.82 337.032C1053.08 336.245 1052.65 335.398 1051.86 335.14L1051.62 335.062C1050.83 334.806 1049.99 335.237 1049.73 336.025ZM1049.73 586.111C1049.99 586.899 1050.83 587.33 1051.62 587.074L1051.86 586.996C1052.65 586.738 1053.08 585.891 1052.82 585.104C1052.56 584.316 1051.72 583.887 1050.93 584.144L1050.69 584.221C1049.91 584.477 1049.48 585.323 1049.73 586.111ZM1059.4 339.471C1059.09 340.236 1059.45 341.114 1060.21 341.431L1060.44 341.526C1061.21 341.845 1062.09 341.484 1062.4 340.72C1062.72 339.955 1062.36 339.077 1061.6 338.758L1061.36 338.661C1060.6 338.343 1059.72 338.706 1059.4 339.471ZM1059.4 582.665C1059.72 583.43 1060.6 583.793 1061.36 583.476L1061.6 583.378C1062.36 583.059 1062.72 582.181 1062.4 581.416C1062.09 580.652 1061.21 580.291 1060.44 580.61L1060.21 580.705C1059.45 581.022 1059.09 581.9 1059.4 582.665ZM1068.78 343.673C1068.4 344.411 1068.69 345.314 1069.43 345.691L1069.65 345.804C1070.39 346.183 1071.29 345.892 1071.67 345.156C1072.05 344.419 1071.76 343.514 1071.02 343.136L1070.79 343.02C1070.06 342.643 1069.15 342.935 1068.78 343.673ZM1068.78 578.463C1069.15 579.201 1070.06 579.493 1070.79 579.116L1071.02 579C1071.76 578.622 1072.05 577.717 1071.67 576.981C1071.29 576.244 1070.39 575.953 1069.65 576.332L1069.43 576.445C1068.69 576.822 1068.4 577.725 1068.78 578.463ZM1077.78 348.601C1077.35 349.306 1077.57 350.23 1078.28 350.664L1078.49 350.794C1079.19 351.23 1080.12 351.011 1080.55 350.307C1080.99 349.602 1080.77 348.677 1080.06 348.242L1079.85 348.109C1079.14 347.675 1078.22 347.895 1077.78 348.601ZM1077.78 573.535C1078.22 574.241 1079.14 574.461 1079.85 574.027L1080.06 573.894C1080.77 573.459 1080.99 572.534 1080.55 571.83C1080.12 571.125 1079.19 570.906 1078.49 571.342L1078.28 571.472C1077.57 571.906 1077.35 572.83 1077.78 573.535ZM1086.38 354.223C1085.89 354.892 1086.04 355.831 1086.71 356.319L1086.91 356.465C1087.57 356.954 1088.51 356.809 1089 356.14C1089.49 355.472 1089.35 354.533 1088.68 354.044L1088.47 353.894C1087.8 353.406 1086.87 353.553 1086.38 354.223ZM1086.38 567.913C1086.87 568.583 1087.8 568.73 1088.47 568.242L1088.68 568.092C1089.35 567.603 1089.49 566.664 1089 565.996C1088.51 565.327 1087.57 565.182 1086.91 565.671L1086.71 565.817C1086.04 566.306 1085.89 567.244 1086.38 567.913ZM1094.5 360.5C1093.97 361.13 1094.04 362.077 1094.67 362.615L1094.86 362.777C1095.48 363.317 1096.43 363.245 1096.97 362.617C1097.51 361.989 1097.44 361.042 1096.81 360.502L1096.62 360.337C1095.99 359.798 1095.04 359.871 1094.5 360.5ZM1094.5 561.636C1095.04 562.265 1095.99 562.338 1096.62 561.799L1096.81 561.634C1097.44 561.094 1097.51 560.147 1096.97 559.519C1096.43 558.891 1095.48 558.819 1094.86 559.359L1094.67 559.521C1094.04 560.059 1093.97 561.006 1094.5 561.636ZM1102.12 367.394C1101.53 367.979 1101.53 368.929 1102.11 369.515L1102.29 369.691C1102.87 370.278 1103.82 370.281 1104.41 369.697C1105 369.113 1105 368.163 1104.42 367.575L1104.24 367.396C1103.65 366.81 1102.7 366.809 1102.12 367.394ZM1102.12 554.742C1102.7 555.327 1103.65 555.327 1104.24 554.74L1104.42 554.561C1105 553.973 1105 553.023 1104.41 552.439C1103.82 551.855 1102.87 551.858 1102.29 552.445L1102.11 552.621C1101.53 553.207 1101.53 554.157 1102.12 554.742ZM1109.17 374.86C1108.54 375.398 1108.46 376.344 1109 376.975L1109.16 377.163C1109.7 377.794 1110.64 377.871 1111.28 377.335C1111.91 376.798 1111.98 375.851 1111.45 375.22L1111.28 375.027C1110.74 374.397 1109.8 374.322 1109.17 374.86ZM1109.17 547.276C1109.8 547.814 1110.74 547.739 1111.28 547.109L1111.45 546.916C1111.98 546.285 1111.91 545.338 1111.28 544.802C1110.64 544.265 1109.7 544.342 1109.16 544.973L1109 545.162C1108.46 545.792 1108.54 546.739 1109.17 547.276ZM1115.61 382.853C1114.94 383.34 1114.8 384.278 1115.28 384.948L1115.43 385.149C1115.91 385.82 1116.85 385.97 1117.52 385.485C1118.19 384.999 1118.34 384.061 1117.86 383.39L1117.71 383.185C1117.22 382.515 1116.29 382.366 1115.61 382.853ZM1115.61 539.283C1116.29 539.77 1117.22 539.621 1117.71 538.951L1117.86 538.746C1118.34 538.075 1118.19 537.137 1117.52 536.651C1116.85 536.166 1115.91 536.316 1115.43 536.987L1115.28 537.188C1114.8 537.858 1114.94 538.796 1115.61 539.283ZM1121.42 391.326C1120.71 391.759 1120.49 392.683 1120.92 393.389L1121.05 393.6C1121.48 394.307 1122.41 394.531 1123.11 394.099C1123.82 393.667 1124.05 392.744 1123.61 392.037L1123.48 391.821C1123.05 391.115 1122.12 390.893 1121.42 391.326ZM1121.42 530.81C1122.12 531.243 1123.05 531.022 1123.48 530.315L1123.61 530.099C1124.05 529.392 1123.82 528.469 1123.11 528.037C1122.41 527.605 1121.48 527.829 1121.05 528.536L1120.92 528.747C1120.49 529.454 1120.71 530.377 1121.42 530.81ZM1126.54 400.225C1125.8 400.602 1125.51 401.505 1125.88 402.243L1126 402.464C1126.37 403.202 1127.27 403.498 1128.01 403.123C1128.75 402.748 1129.05 401.845 1128.67 401.106L1128.56 400.88C1128.18 400.142 1127.28 399.849 1126.54 400.225ZM1126.54 521.911C1127.28 522.287 1128.18 521.994 1128.56 521.256L1128.67 521.03C1129.05 520.291 1128.75 519.388 1128.01 519.013C1127.27 518.639 1126.37 518.934 1126 519.672L1125.88 519.893C1125.51 520.631 1125.8 521.534 1126.54 521.911ZM1130.95 409.502C1130.18 409.819 1129.82 410.696 1130.14 411.462L1130.23 411.69C1130.55 412.456 1131.42 412.821 1132.19 412.506C1132.96 412.19 1133.32 411.314 1133 410.548L1132.91 410.314C1132.59 409.548 1131.71 409.185 1130.95 409.502ZM1130.95 512.634C1131.71 512.951 1132.59 512.588 1132.91 511.822L1133 511.589C1133.32 510.823 1132.96 509.946 1132.19 509.63C1131.42 509.315 1130.55 509.68 1130.23 510.446L1130.14 510.674C1129.82 511.44 1130.18 512.317 1130.95 512.634ZM1134.61 419.094C1133.82 419.35 1133.39 420.196 1133.65 420.984L1133.72 421.22C1133.98 422.008 1134.82 422.442 1135.61 422.187C1136.4 421.933 1136.83 421.088 1136.58 420.299L1136.5 420.058C1136.25 419.27 1135.4 418.839 1134.61 419.094ZM1134.61 503.042C1135.4 503.297 1136.25 502.866 1136.5 502.078L1136.58 501.837C1136.83 501.048 1136.4 500.203 1135.61 499.949C1134.82 499.694 1133.98 500.128 1133.72 500.916L1133.65 501.152C1133.39 501.94 1133.82 502.786 1134.61 503.042ZM1137.51 428.946C1136.7 429.138 1136.2 429.948 1136.4 430.754L1136.45 430.994C1136.65 431.8 1137.45 432.299 1138.26 432.107C1139.07 431.916 1139.56 431.108 1139.37 430.301L1139.31 430.055C1139.12 429.25 1138.31 428.753 1137.51 428.946ZM1137.51 493.19C1138.31 493.383 1139.12 492.886 1139.31 492.081L1139.37 491.835C1139.56 491.029 1139.07 490.22 1138.26 490.029C1137.45 489.837 1136.65 490.336 1136.45 491.142L1136.4 491.382C1136.2 492.188 1136.7 492.998 1137.51 493.19ZM1139.62 438.999C1138.8 439.128 1138.24 439.895 1138.37 440.714L1138.41 440.959C1138.54 441.778 1139.3 442.338 1140.12 442.211C1140.94 442.084 1141.5 441.317 1141.37 440.498L1141.33 440.247C1141.2 439.429 1140.44 438.87 1139.62 438.999ZM1139.62 483.137C1140.44 483.266 1141.2 482.707 1141.33 481.889L1141.37 481.638C1141.5 480.819 1140.94 480.053 1140.12 479.925C1139.3 479.798 1138.54 480.358 1138.41 481.177L1138.37 481.422C1138.24 482.241 1138.8 483.009 1139.62 483.137ZM1140.93 449.178C1140.11 449.242 1139.49 449.964 1139.56 450.79L1139.58 451.037C1139.64 451.863 1140.36 452.482 1141.19 452.419C1142.01 452.355 1142.63 451.635 1142.57 450.809L1142.55 450.556C1142.48 449.73 1141.76 449.113 1140.93 449.178ZM1140.93 472.958C1141.76 473.023 1142.48 472.406 1142.55 471.58L1142.57 471.327C1142.63 470.501 1142.01 469.781 1141.19 469.718C1140.36 469.654 1139.64 470.273 1139.58 471.099L1139.56 471.346C1139.49 472.172 1140.11 472.894 1140.93 472.958ZM1141.46 459.442C1140.63 459.443 1139.96 460.115 1139.96 460.943L1139.96 461.193C1139.96 462.021 1140.63 462.693 1141.46 462.694C1142.28 462.695 1142.96 462.024 1142.96 461.195L1142.96 460.941C1142.96 460.112 1142.28 459.441 1141.46 459.442Z" fill="#2BCDE4"/>
<path d="M34.5 534C53.5538 534 69 518.33 69 499L-3.0598e-06 499C-1.36992e-06 518.33 15.4462 534 34.5 534Z" fill="#1868B7"/>
<path d="M166.551 95.0769C166.006 95.0769 165.564 95.559 165.564 96.1538C165.564 96.7486 166.006 97.2307 166.551 97.2307C167.097 97.2307 167.539 96.7486 167.539 96.1538C167.539 95.559 167.097 95.0769 166.551 95.0769Z" fill="#2BCDE4"/>
<path fill-rule="evenodd" clip-rule="evenodd" d="M167.064 18.9308C167.669 18.3644 167.7 17.4151 167.133 16.8106L167.054 16.7265C166.486 16.1234 165.537 16.0949 164.934 16.6629C164.331 17.2308 164.302 18.1801 164.87 18.7832L164.944 18.862C165.51 19.4665 166.46 19.4973 167.064 18.9308ZM160.454 12.762C160.934 12.0864 160.775 11.1501 160.099 10.6706C160.036 10.626 159.973 10.5817 159.91 10.5374C159.232 10.0613 158.297 10.2249 157.821 10.9028C157.345 11.5808 157.508 12.5163 158.186 12.9924C158.245 13.0338 158.304 13.0753 158.363 13.117C159.038 13.5965 159.975 13.4376 160.454 12.762ZM152.644 7.98946C152.976 7.23051 152.63 6.34604 151.871 6.01394C151.801 5.98308 151.73 5.95241 151.66 5.9219C150.899 5.59361 150.016 5.94408 149.688 6.70468C149.36 7.46529 149.71 8.34801 150.471 8.67629C150.537 8.70481 150.603 8.7335 150.669 8.76234C151.428 9.09443 152.312 8.7484 152.644 7.98946ZM144.026 4.91019C144.195 4.09932 143.675 3.30443 142.865 3.13473C142.789 3.11899 142.714 3.10342 142.639 3.08803C141.827 2.92241 141.035 3.44616 140.869 4.25786C140.703 5.06956 141.227 5.86185 142.039 6.02746C142.085 6.0369 142.131 6.04642 142.178 6.05601C142.202 6.06103 142.226 6.06607 142.25 6.07113C143.061 6.24082 143.856 5.72105 144.026 4.91019ZM134.959 3.65763C134.961 2.82921 134.291 2.15599 133.463 2.15396L133.347 2.15381L133.219 2.15399C132.391 2.15623 131.721 2.82961 131.723 3.65804C131.726 4.48646 132.399 5.15622 133.228 5.15397L133.347 5.15381L133.455 5.15394C134.284 5.15598 134.957 4.48605 134.959 3.65763ZM134.847 93.5769C134.847 92.7485 134.175 92.0769 133.347 92.0769L133.228 92.0767C132.399 92.0745 131.726 92.7443 131.723 93.5727C131.721 94.4011 132.391 95.0745 133.219 95.0767L133.347 95.0769C134.175 95.0769 134.847 94.4053 134.847 93.5769ZM124.934 4.41789C124.752 3.60972 123.949 3.10219 123.141 3.28428C123.098 3.29409 123.054 3.30396 123.011 3.31389C122.972 3.32282 122.932 3.3318 122.893 3.34083C122.086 3.5274 121.583 4.33295 121.77 5.1401C121.956 5.94725 122.762 6.45034 123.569 6.26378C123.646 6.24595 123.723 6.22833 123.801 6.21091C124.609 6.02882 125.116 5.22606 124.934 4.41789ZM124.934 92.8128C125.116 92.0047 124.609 91.2019 123.801 91.0198C123.723 91.0024 123.646 90.9848 123.569 90.9669C122.762 90.7804 121.956 91.2835 121.77 92.0906C121.583 92.8978 122.086 93.7033 122.893 93.8899C122.976 93.909 123.059 93.9278 123.141 93.9464C123.949 94.1285 124.752 93.621 124.934 92.8128ZM115.327 7.40313C114.968 6.65655 114.072 6.34237 113.325 6.70141C113.249 6.73813 113.172 6.77506 113.096 6.81219C112.352 7.17534 112.043 8.07333 112.406 8.81793C112.769 9.56252 113.667 9.87175 114.411 9.50861C114.483 9.47389 114.554 9.43937 114.625 9.40503C115.372 9.046 115.686 8.14972 115.327 7.40313ZM115.327 89.8276C115.686 89.081 115.372 88.1847 114.625 87.8257C114.554 87.7913 114.483 87.7568 114.411 87.7221C113.667 87.359 112.769 87.6682 112.406 88.4128C112.043 89.1574 112.352 90.0554 113.096 90.4185C113.172 90.4557 113.249 90.4926 113.325 90.5293C114.072 90.8883 114.968 90.5742 115.327 89.8276ZM106.632 12.4672C106.115 11.8194 105.172 11.7128 104.524 12.2292C104.482 12.2627 104.44 12.2963 104.398 12.33C104.374 12.3493 104.35 12.3687 104.326 12.388C103.681 12.9079 103.579 13.8522 104.099 14.4972C104.619 15.1422 105.563 15.2436 106.208 14.7237C106.27 14.674 106.332 14.6245 106.394 14.5751C107.042 14.0588 107.148 13.115 106.632 12.4672ZM106.632 84.7635C107.148 84.1157 107.042 83.1719 106.394 82.6556C106.332 82.6062 106.27 82.5567 106.208 82.507C105.563 81.9871 104.619 82.0885 104.099 82.7335C103.579 83.3785 103.681 84.3228 104.326 84.8427C104.392 84.8958 104.458 84.9487 104.524 85.0015C105.172 85.5179 106.115 85.4113 106.632 84.7635ZM99.279 19.3359C98.6321 18.8185 97.6881 18.9234 97.1707 19.5703C97.1178 19.6364 97.0651 19.7026 97.0126 19.769C96.4986 20.4187 96.6087 21.3621 97.2584 21.876C97.9082 22.39 98.8515 22.2799 99.3655 21.6302C99.4146 21.5681 99.4639 21.5061 99.5134 21.4443C100.031 20.7974 99.9259 19.8534 99.279 19.3359ZM99.279 77.8948C99.9259 77.3773 100.031 76.4334 99.5134 75.7864C99.4639 75.7246 99.4146 75.6626 99.3654 75.6005C98.8515 74.9508 97.9081 74.8407 97.2584 75.3547C96.6087 75.8686 96.4986 76.812 97.0126 77.4617C97.0651 77.5281 97.1178 77.5943 97.1707 77.6604C97.6881 78.3073 98.6321 78.4123 99.279 77.8948ZM93.629 69.5682C94.3747 69.2073 94.6866 68.3102 94.3257 67.5645C94.2912 67.4933 94.2569 67.4219 94.2228 67.3504C93.866 66.6028 92.9707 66.2859 92.223 66.6427C91.4754 66.9995 91.1585 67.8949 91.5153 68.6425C91.5518 68.719 91.5885 68.7953 91.6253 68.8715C91.9862 69.6171 92.8833 69.9291 93.629 69.5682ZM93.629 27.6625C92.8833 27.3016 91.9862 27.6136 91.6254 28.3592C91.5885 28.4354 91.5518 28.5118 91.5153 28.5882C91.1585 29.3358 91.4754 30.2312 92.223 30.588C92.9707 30.9448 93.866 30.6279 94.2228 29.8803C94.2569 29.8088 94.2912 29.7374 94.3257 29.6662C94.6866 28.9205 94.3747 28.0234 93.629 27.6625ZM89.9754 37.0361C89.1679 36.8509 88.3632 37.3554 88.178 38.1628C88.1674 38.2092 88.1568 38.2557 88.1463 38.3021C88.1381 38.3383 88.13 38.3745 88.1219 38.4107C87.9411 39.2192 88.45 40.0211 89.2584 40.2019C90.0669 40.3826 90.8688 39.8738 91.0496 39.0653C91.0669 38.988 91.0844 38.9107 91.1021 38.8335C91.2873 38.0261 90.7828 37.2213 89.9754 37.0361ZM89.9754 60.1946C90.7828 60.0094 91.2873 59.2046 91.1021 58.3972C91.0844 58.32 91.0669 58.2427 91.0496 58.1654C90.8688 57.3569 90.0669 56.8481 89.2584 57.0288C88.45 57.2096 87.9411 58.0115 88.1219 58.82C88.1298 58.8556 88.1378 58.8912 88.1459 58.9268C88.1565 58.9739 88.1672 59.0209 88.178 59.0679C88.3632 59.8753 89.1679 60.3798 89.9754 60.1946ZM88.5043 50.2389C89.3327 50.2367 90.0025 49.5633 90.0003 48.7349L90.0001 48.6154L90.0003 48.4958C90.0025 47.6674 89.3327 46.994 88.5043 46.9918C87.6759 46.9896 87.0025 47.6593 87.0003 48.4878L87.0001 48.6154L87.0003 48.7429C87.0025 49.5714 87.6759 50.2411 88.5043 50.2389Z" fill="#2BCDE4"/>
<path d="M166.462 -3.79556e-05C165.867 -3.79816e-05 165.385 0.482117 165.385 1.07689C165.385 1.67165 165.867 2.15381 166.462 2.15381C167.056 2.15381 167.539 1.67165 167.539 1.07689C167.539 0.482117 167.056 -3.79296e-05 166.462 -3.79556e-05Z" fill="#2BCDE4"/>
</svg>
