<svg xmlns="http://www.w3.org/2000/svg" width="100" height="100" fill="none" viewBox="0 0 100 100"><circle cx="50" cy="50" r="49.5" fill="#fff" stroke="#E5E8EB"/><path fill="#2BCDE4" fill-rule="evenodd" d="M45.7612 24.5367C30.9814 28.0335 21.8346 42.8496 25.3314 57.6294C28.8282 72.4092 43.6443 81.5559 58.4241 78.0592C73.2039 74.5624 82.3506 59.7463 78.8538 44.9665C75.3571 30.1867 60.541 21.04 45.7612 24.5367ZM35.0456 42.7271C31.0147 43.6807 28.5202 47.7215 29.4738 51.7523C30.4275 55.7832 34.4682 58.2777 38.4991 57.3241C42.53 56.3704 45.0245 52.3297 44.0708 48.2988C43.1172 44.2679 39.0764 41.7734 35.0456 42.7271Z" clip-rule="evenodd"/><path fill="#1868B7" d="M41.2767 67.592C40.4168 63.9576 42.666 60.3143 46.3004 59.4544C49.9348 58.5945 53.5781 60.8437 54.438 64.4781C55.2978 68.1125 53.0486 71.7558 49.4142 72.6157C45.7799 73.4755 42.1366 71.2263 41.2767 67.592Z"/><path fill="#1868B7" d="M57.8622 61.9778C57.0023 58.3434 59.2515 54.7001 62.8859 53.8402C66.5202 52.9804 70.1635 55.2296 71.0234 58.864C71.8833 62.4983 69.6341 66.1416 65.9997 67.0015C62.3653 67.8614 58.722 65.6122 57.8622 61.9778Z"/><path fill="#1868B7" d="M59.2862 44.5C58.4837 41.108 60.5829 37.7075 63.975 36.905C67.3671 36.1025 70.7675 38.2017 71.5701 41.5938C72.3726 44.9859 70.2734 48.3863 66.8813 49.1888C63.4892 49.9914 60.0888 47.8921 59.2862 44.5Z"/><path fill="#1868B7" d="M43.7379 37.5236C42.878 33.8892 45.1272 30.2459 48.7616 29.3861C52.396 28.5262 56.0393 30.7754 56.8991 34.4098C57.759 38.0441 55.5098 41.6874 51.8754 42.5473C48.241 43.4072 44.5977 41.158 43.7379 37.5236Z"/><path fill="#2BCDE4" d="M24.9186 25.8333C25.3791 22.6909 27.4371 18.6361 28.616 16.5094C28.9831 15.8472 29.901 15.8596 30.2499 16.5316C31.3706 18.6895 33.3177 22.7988 33.6926 25.9525C34.1133 29.4916 31.8907 35.0955 31.8907 35.0955L26.4713 35.0219C26.4713 35.0219 24.4019 29.3596 24.9186 25.8333Z"/><path fill="#1868B7" d="M23.9816 34.9283C23.9911 34.2295 24.5652 33.6708 25.264 33.6803L33.3424 33.7901C34.0411 33.7996 34.5998 34.3737 34.5904 35.0725L34.0892 71.9405C34.0494 74.8701 31.6423 77.2126 28.7128 77.1728C25.7832 77.133 23.4407 74.7259 23.4805 71.7963L23.9816 34.9283Z"/><path fill="#1868B7" fill-rule="evenodd" d="M25.1118 24.7746C25.8064 21.8279 27.5543 18.4031 28.6046 16.5085C28.9717 15.8463 29.8895 15.8587 30.2385 16.5307C31.2426 18.4642 32.9101 21.9642 33.5158 24.9398C32.3149 25.6665 30.8776 26.0802 29.3378 26.0593C27.763 26.0379 26.3078 25.565 25.1118 24.7746Z" clip-rule="evenodd"/></svg>