<svg xmlns="http://www.w3.org/2000/svg" width="100" height="100" fill="none" viewBox="0 0 100 100"><circle cx="50" cy="50" r="49.5" fill="#fff" stroke="#E5E8EB"/><path fill="#2BCDE4" d="M26.2922 26.7923C26.2922 21.3842 30.6764 17 36.0845 17C41.4927 17 45.8769 21.3842 45.8769 26.7923V54.0276C45.8769 54.6411 45.3795 55.1385 44.766 55.1385H27.4031C26.7896 55.1385 26.2922 54.6411 26.2922 54.0276V26.7923Z"/><path fill="#1868B7" d="M32.4768 28.4759C32.4768 26.4834 34.092 24.8682 36.0845 24.8682C38.077 24.8682 39.6922 26.4834 39.6922 28.4759V49.2287C39.6922 51.2212 38.077 52.8364 36.0845 52.8364C34.092 52.8364 32.4768 51.2212 32.4768 49.2287V28.4759Z"/><path fill="#2BCDE4" d="M54.123 26.7923C54.123 21.3842 58.5072 17 63.9154 17C69.3235 17 73.7077 21.3842 73.7077 26.7923V54.0276C73.7077 54.6411 73.2103 55.1385 72.5968 55.1385H55.2339C54.6204 55.1385 54.123 54.6411 54.123 54.0276V26.7923Z"/><path fill="#1868B7" d="M60.3076 28.4759C60.3076 26.4834 61.9228 24.8682 63.9153 24.8682C65.9078 24.8682 67.523 26.4834 67.523 28.4759V49.2287C67.523 51.2212 65.9078 52.8364 63.9153 52.8364C61.9228 52.8364 60.3076 51.2212 60.3076 49.2287V28.4759Z"/><path fill="#2BCDE4" d="M22.3379 62.6858C25.0664 53.51 29.7314 44.3509 39.0517 42.1663C42.0474 41.4642 45.6665 41 50 41C54.3335 41 57.9526 41.4642 60.9483 42.1663C70.2686 44.3509 74.9336 53.51 77.6621 62.6858C80.8241 73.3196 72.8574 84 61.7634 84H38.2366C27.1426 84 19.1759 73.3196 22.3379 62.6858Z"/><path fill="#1868B7" d="M68.5538 65.9616C68.5538 67.954 66.9385 69.5693 64.9461 69.5693C62.9536 69.5693 61.3384 67.954 61.3384 65.9616C61.3384 63.9691 62.9536 62.3539 64.9461 62.3539C66.9385 62.3539 68.5538 63.9691 68.5538 65.9616Z"/><path fill="#1868B7" d="M37.6307 65.9616C37.6307 67.954 36.0154 69.5693 34.023 69.5693C32.0305 69.5693 30.4153 67.954 30.4153 65.9616C30.4153 63.9691 32.0305 62.3539 34.023 62.3539C36.0154 62.3539 37.6307 63.9691 37.6307 65.9616Z"/><path fill="#1868B7" fill-rule="evenodd" d="M49.9069 71.3966L49.9058 71.3934L49.9047 71.3898L49.9029 71.3844C49.9025 71.3831 49.9022 71.3821 49.902 71.3815C49.9018 71.381 49.9019 71.3813 49.902 71.3815C49.9021 71.3818 49.9021 71.3819 49.9025 71.3828C49.9039 71.3874 49.9054 71.392 49.9069 71.3966ZM50 71.6167C49.9847 71.5843 49.9705 71.5527 49.9576 71.5227C49.934 71.4678 49.9177 71.425 49.9088 71.4007C49.9056 71.3918 49.9034 71.3857 49.9025 71.3828C49.564 70.3389 48.4461 69.7618 47.3978 70.0928C46.3445 70.4254 45.7603 71.549 46.0929 72.6022L48 72C46.0929 72.6022 46.0931 72.6028 46.0933 72.6034L46.0945 72.6073L46.0963 72.6131L46.1009 72.627L46.1131 72.6639C46.1227 72.6923 46.1353 72.7284 46.1509 72.7711C46.1819 72.8563 46.2257 72.9697 46.2827 73.1023C46.3941 73.3616 46.5686 73.7231 46.8161 74.0992C47.24 74.7436 48.2621 76 50 76C51.738 76 52.7601 74.7436 53.184 74.0992C53.4315 73.7231 53.606 73.3616 53.7174 73.1023C53.7744 72.9697 53.8182 72.8563 53.8492 72.7711C53.8648 72.7284 53.8774 72.6923 53.887 72.6639L53.8992 72.627L53.9038 72.6131L53.9056 72.6073L53.9068 72.6034C53.907 72.6028 53.9072 72.6022 52 72L53.9072 72.6022C54.2398 71.549 53.6556 70.4254 52.6023 70.0928C51.554 69.7618 50.4361 70.3389 50.0976 71.3828C50.0967 71.3857 50.0945 71.3918 50.0913 71.4007C50.0824 71.425 50.0661 71.4678 50.0425 71.5227C50.0296 71.5527 50.0154 71.5843 50 71.6167Z" clip-rule="evenodd"/></svg>