<svg xmlns="http://www.w3.org/2000/svg" width="100" height="100" fill="none" viewBox="0 0 100 100"><circle cx="50" cy="50" r="49.5" fill="#fff" stroke="#E5E8EB"/><path fill="#2BCDE4" d="M46.1542 16.6289C48.1534 14.2225 51.8466 14.2225 53.8458 16.6289L57.752 21.3304C58.9047 22.7178 60.7153 23.3768 62.4901 23.0549L68.5045 21.9642C71.5828 21.4059 74.4119 23.7798 74.3966 26.9083L74.3669 33.0207C74.3581 34.8244 75.3215 36.4931 76.8879 37.3873L82.1963 40.4178C84.9133 41.9688 85.5546 45.6058 83.532 47.9926L79.5802 52.6558C78.414 54.0319 78.0794 55.9294 78.7046 57.6213L80.8232 63.355C81.9075 66.2896 80.0609 69.4879 76.9773 70.0161L70.9526 71.0482C69.1747 71.3528 67.6987 72.5913 67.0901 74.2893L65.0275 80.0433C63.9718 82.9883 60.5014 84.2514 57.7997 82.674L52.5211 79.5919C50.9634 78.6825 49.0366 78.6825 47.4789 79.5919L42.2003 82.674C39.4986 84.2514 36.0282 82.9883 34.9725 80.0433L32.9099 74.2893C32.3013 72.5913 30.8253 71.3528 29.0474 71.0482L23.0227 70.0161C19.9391 69.4879 18.0925 66.2896 19.1768 63.355L21.2954 57.6213C21.9206 55.9294 21.586 54.0319 20.4198 52.6558L16.468 47.9926C14.4454 45.6058 15.0867 41.9688 17.8037 40.4178L23.1121 37.3873C24.6785 36.4931 25.6419 34.8244 25.6331 33.0207L25.6034 26.9083C25.5881 23.7798 28.4172 21.4059 31.4955 21.9642L37.5099 23.0549C39.2847 23.3768 41.0953 22.7178 42.248 21.3304L46.1542 16.6289Z"/><path fill="#1868B7" d="M28 46.2824C28 45.0219 29.0219 44 30.2824 44C31.0798 44 31.8194 44.4161 32.2333 45.0977L36.6244 52.3286C36.6283 52.3351 36.6353 52.339 36.6428 52.339C36.6547 52.339 36.6644 52.3293 36.6644 52.3175V45.3123C36.6644 44.5875 37.2519 44 37.9766 44C38.7014 44 39.2889 44.5875 39.2889 45.3123V53.8028C39.2889 55.0163 38.3052 56 37.0917 56C36.3249 56 35.6135 55.6002 35.2148 54.9451L30.6645 47.468C30.6606 47.4615 30.6536 47.4576 30.6461 47.4576C30.6342 47.4576 30.6245 47.4673 30.6245 47.4792V54.6877C30.6245 55.4125 30.037 56 29.3123 56C28.5875 56 28 55.4125 28 54.6877V46.2824Z"/><path fill="#1868B7" d="M43.8386 48C43.8386 45.7909 45.6295 44 47.8386 44H50.7106C51.3846 44 51.9309 44.5464 51.9309 45.2203C51.9309 45.8943 51.3846 46.4407 50.7106 46.4407H47.5818C46.964 46.4407 46.4632 46.9415 46.4632 47.5593C46.4632 48.1771 46.964 48.678 47.5818 48.678H50.4078C51.0818 48.678 51.6281 49.2243 51.6281 49.8983C51.6281 50.5723 51.0818 51.1186 50.4078 51.1186H47.6835C47.0095 51.1186 46.4632 51.665 46.4632 52.339C46.4632 53.013 47.0095 53.5593 47.6835 53.5593H51.0134C51.6874 53.5593 52.2338 54.1057 52.2338 54.7797C52.2338 55.4536 51.6874 56 51.0134 56H47.8386C45.6295 56 43.8386 54.2091 43.8386 52V48Z"/><path fill="#1868B7" d="M55.6181 45.7302C55.3637 44.866 56.0115 44 56.9124 44C57.5329 44 58.0733 44.4232 58.2222 45.0256L59.8657 51.678C59.8682 51.6879 59.8771 51.6949 59.8873 51.6949C59.897 51.6949 59.9056 51.6887 59.9085 51.6795L62.0199 45.1547C62.2426 44.4663 62.8837 44 63.6072 44C64.3365 44 64.9813 44.4738 65.1993 45.1698L67.3012 51.8827C67.3041 51.892 67.3127 51.8983 67.3224 51.8983C67.3326 51.8983 67.3415 51.8914 67.344 51.8815L69.1009 44.9504C69.2426 44.3915 69.7456 44 70.3223 44C71.1616 44 71.7663 44.8052 71.5324 45.6112L68.8474 54.8632C68.6519 55.5367 68.035 56 67.3337 56C66.6462 56 66.0381 55.5544 65.8309 54.8988L63.5594 47.711C63.5564 47.7014 63.5476 47.6949 63.5375 47.6949C63.5275 47.6949 63.5187 47.7014 63.5156 47.711L61.2323 54.9363C61.0322 55.5695 60.4447 56 59.7806 56C59.1054 56 58.5108 55.5553 58.3201 54.9075L55.6181 45.7302Z"/><path fill="#1868B7" fill-rule="evenodd" d="M36.6644 45.3123C36.6644 44.5875 37.2519 44 37.9766 44C38.7014 44 39.2889 44.5875 39.2889 45.3123V53.8028C39.2889 55.0163 38.3052 56 37.0917 56C36.3249 56 35.6135 55.6002 35.2148 54.9451L30.6645 47.468C30.6606 47.4615 30.6536 47.4576 30.6461 47.4576C30.6342 47.4576 30.6245 47.4673 30.6245 47.4792V54.6877C30.6245 55.4125 30.037 56 29.3123 56C28.5875 56 28 55.4125 28 54.6877V46.2824C28 45.0219 29.0219 44 30.2824 44C31.0798 44 31.8194 44.4161 32.2333 45.0977L36.6244 52.3286C36.6283 52.3351 36.6353 52.339 36.6428 52.339C36.6547 52.339 36.6644 52.3293 36.6644 52.3175V45.3123ZM36.4144 51.5011L32.447 44.9679C31.9878 44.2117 31.1672 43.75 30.2824 43.75C28.8838 43.75 27.75 44.8838 27.75 46.2824V54.6877C27.75 55.5505 28.4495 56.25 29.3123 56.25C30.1751 56.25 30.8745 55.5505 30.8745 54.6877V48.294L35.0012 55.075C35.4453 55.8047 36.2376 56.25 37.0917 56.25C38.4433 56.25 39.5389 55.1544 39.5389 53.8028V45.3123C39.5389 44.4495 38.8394 43.75 37.9766 43.75C37.1138 43.75 36.4144 44.4495 36.4144 45.3123V51.5011ZM47.8386 43.75H50.7106C51.5227 43.75 52.1809 44.4083 52.1809 45.2203C52.1809 46.0324 51.5227 46.6907 50.7106 46.6907H47.5818C47.1021 46.6907 46.7132 47.0796 46.7132 47.5593C46.7132 48.0391 47.1021 48.428 47.5818 48.428H50.4078C51.2198 48.428 51.8781 49.0863 51.8781 49.8983C51.8781 50.7103 51.2198 51.3686 50.4078 51.3686H47.6835C47.1476 51.3686 46.7132 51.8031 46.7132 52.339C46.7132 52.8749 47.1476 53.3093 47.6835 53.3093H51.0134C51.8255 53.3093 52.4838 53.9676 52.4838 54.7797C52.4838 55.5917 51.8255 56.25 51.0134 56.25H47.8386C45.4914 56.25 43.5886 54.3472 43.5886 52V48C43.5886 45.6528 45.4914 43.75 47.8386 43.75ZM62.0199 45.1547C62.2426 44.4663 62.8837 44 63.6072 44C64.3365 44 64.9813 44.4738 65.1993 45.1698L67.3012 51.8827C67.3041 51.892 67.3127 51.8983 67.3224 51.8983C67.3326 51.8983 67.3415 51.8914 67.344 51.8815L69.1009 44.9504C69.2426 44.3915 69.7457 44 70.3223 44C71.1616 44 71.7663 44.8052 71.5324 45.6112L68.8474 54.8632C68.6519 55.5367 68.035 56 67.3337 56C66.6462 56 66.0381 55.5544 65.8309 54.8988L63.5594 47.711C63.5564 47.7014 63.5475 47.6949 63.5375 47.6949C63.5275 47.6949 63.5187 47.7014 63.5156 47.711L61.2323 54.9363C61.0322 55.5695 60.4447 56 59.7806 56C59.1054 56 58.5108 55.5553 58.3201 54.9075L55.6181 45.7302C55.3637 44.866 56.0115 44 56.9124 44C57.5329 44 58.0733 44.4232 58.2222 45.0256L59.8657 51.678C59.8682 51.6879 59.8771 51.6949 59.8873 51.6949C59.897 51.6949 59.9056 51.6887 59.9085 51.6795L62.0199 45.1547ZM59.9167 50.8421L58.4649 44.9656C58.2885 44.2516 57.6478 43.75 56.9124 43.75C55.8446 43.75 55.0767 44.7765 55.3783 45.8008L58.0803 54.9781C58.3023 55.7322 58.9945 56.25 59.7806 56.25C60.5538 56.25 61.2377 55.7488 61.4707 55.0116L63.5375 48.4713L65.5925 54.9742C65.8326 55.7337 66.5372 56.25 67.3337 56.25C68.1462 56.25 68.861 55.7132 69.0874 54.9329L71.7725 45.6809C72.0528 44.7149 71.3281 43.75 70.3223 43.75C69.6312 43.75 69.0284 44.2191 68.8586 44.889L67.2994 51.0402L65.4379 45.0951C65.1873 44.2948 64.4458 43.75 63.6072 43.75C62.7752 43.75 62.0381 44.2862 61.782 45.0777L59.9167 50.8421ZM43.8386 48C43.8386 45.7909 45.6295 44 47.8386 44H50.7106C51.3846 44 51.9309 44.5464 51.9309 45.2203C51.9309 45.8943 51.3846 46.4407 50.7106 46.4407H47.5818C46.964 46.4407 46.4632 46.9415 46.4632 47.5593C46.4632 48.1771 46.964 48.678 47.5818 48.678H50.4078C51.0818 48.678 51.6281 49.2243 51.6281 49.8983C51.6281 50.5723 51.0818 51.1186 50.4078 51.1186H47.6835C47.0095 51.1186 46.4632 51.665 46.4632 52.339C46.4632 53.013 47.0095 53.5593 47.6835 53.5593H51.0134C51.6874 53.5593 52.2338 54.1057 52.2338 54.7797C52.2338 55.4536 51.6874 56 51.0134 56H47.8386C45.6295 56 43.8386 54.2091 43.8386 52V48Z" clip-rule="evenodd"/></svg>