<svg xmlns="http://www.w3.org/2000/svg" width="100" height="100" fill="none" viewBox="0 0 100 100"><circle cx="50" cy="50" r="49.5" fill="#fff" stroke="#E5E8EB"/><path fill="#1868B7" d="M29 32C29 30.8954 29.8954 30 31 30H37C38.1046 30 39 30.8954 39 32V38H29V32Z"/><path fill="#1868B7" d="M65 32C65 30.8954 65.8954 30 67 30H70C71.1046 30 72 30.8954 72 32V38H65V32Z"/><path fill="#2BCDE4" d="M41.1961 28.5474C41.4066 27.6413 42.214 27 43.1442 27H57.8558C58.786 27 59.5934 27.6413 59.8039 28.5474L62 38H39L41.1961 28.5474Z"/><path fill="#2BCDE4" d="M25 37C25 35.3431 26.3431 34 28 34H73C74.6569 34 76 35.3431 76 37V70C76 71.6569 74.6569 73 73 73H28C26.3431 73 25 71.6569 25 70V37Z"/><path fill="#1868B7" d="M63 54C63 60.6274 57.6274 66 51 66C44.3726 66 39 60.6274 39 54C39 47.3726 44.3726 42 51 42C57.6274 42 63 47.3726 63 54Z"/><path fill="#2BCDE4" d="M56 54C56 56.7614 53.7614 59 51 59C48.2386 59 46 56.7614 46 54C46 51.2386 48.2386 49 51 49C53.7614 49 56 51.2386 56 54Z"/><path fill="#1868B7" d="M65 41.5C65 39.567 66.567 38 68.5 38C70.433 38 72 39.567 72 41.5C72 43.433 70.433 45 68.5 45C66.567 45 65 43.433 65 41.5Z"/></svg>