<svg xmlns="http://www.w3.org/2000/svg" width="200" height="200" fill="none" viewBox="0 0 200 200"><path fill="#8046E3" d="M93.263 73.4409C93.1756 72.8556 93.0134 72.2906 92.81 71.7353C92.4939 70.8718 92.0162 70.1073 91.4505 69.3871C90.8405 68.6096 90.063 68.0368 89.2431 67.5102C89.1095 67.4965 88.9987 67.4307 88.886 67.3629C86.9308 66.1891 84.9828 65.003 83.0309 63.824C80.3634 62.213 77.6998 60.5941 75.0284 58.9889C73.9237 58.3248 72.7148 57.9663 71.4322 57.8236C69.9482 57.6587 68.5333 57.8796 67.1751 58.487C66.6192 58.7354 66.1056 59.0645 65.581 59.3708C62.8796 60.9467 60.1743 62.5141 57.4716 64.088C55.6891 65.1262 53.8832 66.1272 52.1262 67.2065C49.793 68.639 48.3625 70.6958 48.0392 73.4617C48.0066 73.7433 47.989 74.0229 47.989 74.305C47.9897 80.007 47.948 85.7089 48.0066 91.4102C48.0366 94.326 49.3407 96.6455 51.8225 98.2077C54.4691 99.8735 57.1692 101.454 59.8439 103.074C61.9522 104.352 64.0612 105.628 66.1715 106.902C67.7506 107.855 69.4822 108.257 71.3155 108.155C72.718 108.077 73.9934 107.596 75.1972 106.861C78.478 104.857 81.7855 102.898 85.0812 100.919C85.2383 100.825 85.3895 100.716 85.5804 100.698C86.5118 100.134 87.4418 99.5691 88.3737 99.0074C89.9757 98.0422 91.5724 97.0691 93.1835 96.1196C94.0392 95.6151 94.9216 95.1557 95.7917 94.6753C97.6354 93.6574 99.4811 92.6426 101.322 91.6188C103.912 90.1784 106.518 88.7675 109.057 87.2359C111.574 85.7167 114.132 84.2621 116.666 82.769C119.001 81.3932 121.323 79.9953 123.661 78.626C124.612 78.0688 125.54 77.4613 126.618 77.1485C127.159 76.9915 127.706 76.8741 128.257 76.7666C128.363 76.7125 128.488 76.7796 128.593 76.7158C128.698 76.7106 128.803 76.7054 128.908 76.7001C129.297 76.6676 129.687 76.6649 130.076 76.7014C131.777 76.8122 133.233 77.5617 134.66 78.4161C136.38 79.4465 138.124 80.4371 139.857 81.4453C142.624 83.0551 145.388 84.6688 148.158 86.2753C150.553 87.6654 152.963 89.0314 155.349 90.4372C157.392 91.6403 159.516 92.713 161.465 94.0627C163.377 95.3864 164.518 97.2497 164.881 99.5659C164.899 99.6825 164.93 99.7979 164.955 99.9139C165.003 100.024 164.945 100.149 165.001 100.258C165.001 100.518 165.001 100.779 165.001 101.039C165.001 111.626 165 122.213 165.001 132.801C165.001 135.387 164.058 137.559 162.138 139.294C161.412 139.951 160.537 140.384 159.7 140.875C158.142 141.788 156.585 142.702 155.024 143.609C153.77 144.337 152.507 145.052 151.252 145.781C149.393 146.861 147.542 147.953 145.682 149.031C143.59 150.244 141.489 151.443 139.397 152.655C137.557 153.723 135.724 154.805 133.884 155.875C133.401 156.156 132.896 156.394 132.372 156.589C131.986 156.732 131.593 156.814 131.172 156.807C129.988 156.788 128.802 156.752 127.622 156.816C126.639 156.869 125.836 156.471 125.036 156.019C124.002 155.436 122.98 154.831 121.953 154.234C120.952 153.652 119.952 153.067 118.952 152.484C117.953 151.901 116.954 151.317 115.953 150.737C114.943 150.151 113.928 149.571 112.916 148.987C111.888 148.392 110.861 147.797 109.835 147.2C108.834 146.618 107.836 146.031 106.834 145.45C105.65 144.763 104.462 144.082 103.278 143.394C102.03 142.67 100.784 141.943 99.5384 141.215C98.7414 140.749 97.9163 140.329 97.1714 139.779C95.8203 138.78 94.8336 137.506 94.2314 135.93C93.9988 135.32 93.8515 134.698 93.7713 134.055C93.7146 133.926 93.7889 133.781 93.7211 133.653C93.7198 129.842 93.7224 126.03 93.7114 122.219C93.7107 121.91 93.8091 121.75 94.0783 121.595C96.227 120.362 98.3627 119.105 100.506 117.862C102.246 116.854 103.991 115.852 105.734 114.849C106.007 114.691 106.282 114.537 106.629 114.339C106.629 115.672 106.629 116.946 106.629 118.22C106.746 118.362 106.703 118.531 106.704 118.689C106.707 120.927 106.683 123.164 106.713 125.401C106.739 127.301 107.407 128.98 108.59 130.467C109.43 131.523 110.555 132.191 111.695 132.849C113.754 134.038 115.807 135.239 117.864 136.432C120.352 137.876 122.823 139.351 125.334 140.756C126.363 141.332 127.504 141.614 128.688 141.738C129.949 141.869 131.152 141.677 132.334 141.263C132.747 141.119 133.135 140.923 133.508 140.701C136.674 138.823 139.834 136.935 142.996 135.05C144.647 134.066 146.332 133.137 147.934 132.077C150.044 130.681 151.264 128.697 151.605 126.189C151.663 125.762 151.698 125.328 151.697 124.891C151.692 119.385 151.707 113.879 151.687 108.373C151.68 106.055 150.847 104.048 149.214 102.391C148.528 101.696 147.685 101.217 146.846 100.734C144.363 99.3026 141.89 97.8532 139.411 96.4141C137.336 95.2098 135.295 93.9396 133.178 92.814C130.559 91.4226 127.847 91.2584 125.15 92.6407C124.001 93.2298 122.909 93.9278 121.793 94.5769C118.386 96.5588 114.978 98.5401 111.573 100.525C108.543 102.291 105.506 104.045 102.478 105.815C102.344 105.893 102.198 105.92 102.058 105.97C101.161 106.481 100.263 106.988 99.3683 107.503C98.1385 108.211 96.9107 108.923 95.6828 109.636C93.6475 110.817 91.6121 112 89.5775 113.183C87.6093 114.327 85.6417 115.473 83.6735 116.618C81.7998 117.708 79.9254 118.798 78.0517 119.889C76.9106 120.554 75.7876 121.253 74.6237 121.876C73.6924 122.374 72.6776 122.668 71.6218 122.794C71.5123 122.843 71.3879 122.784 71.2797 122.842C71.0679 122.847 70.856 122.854 70.6442 122.86C70.5374 122.889 70.4305 122.891 70.3242 122.859C70.1346 122.853 69.9443 122.847 69.7546 122.842C69.6465 122.783 69.5213 122.844 69.4118 122.793C69.1322 122.744 68.852 122.696 68.5724 122.647C68.1494 122.651 67.7747 122.472 67.3974 122.318C66.337 121.886 65.392 121.239 64.4066 120.67C61.0978 118.762 57.7981 116.838 54.4939 114.921C52.119 113.543 49.7448 112.164 47.3712 110.784C44.632 109.191 41.8739 107.63 39.1516 106.009C37.0739 104.771 35.6936 102.979 35.1357 100.594C35.0562 100.254 35.0354 99.9093 35.0354 99.562C35.0191 99.4173 35.0699 99.2674 35.0015 99.126C35.0015 88.1783 35.0015 77.23 35.0015 66.2823C35.0699 66.1787 35.0197 66.0633 35.0354 65.9545C35.0588 64.625 35.5685 63.4623 36.2828 62.3772C36.9736 61.3286 37.9316 60.5908 39.0206 59.9775C41.0925 58.811 43.1304 57.5838 45.1833 56.3846C48.2771 54.5767 51.3689 52.7656 54.4613 50.9557C58.5365 48.5704 62.615 46.1871 66.6883 43.7965C67.2618 43.4596 67.8881 43.238 68.5235 43.0451C68.6604 43.0034 68.8018 43.0021 68.9432 43.0021C70.3549 43.0021 71.7672 42.9988 73.1788 43.0034C73.8827 43.006 74.479 43.3449 75.0571 43.6812C77.5636 45.1378 80.0616 46.61 82.5597 48.0816C84.0189 48.9412 85.4814 49.797 86.9432 50.6527C87.0475 50.7133 87.1518 50.7706 87.2019 50.8892C88.3027 51.5455 89.4002 52.207 90.5042 52.8575C93.085 54.3799 95.6665 55.9004 98.2519 57.415C99.6838 58.2537 101.146 59.043 102.532 59.9573C104.285 61.1148 105.428 62.7376 105.995 64.7592C106.105 65.1516 106.157 65.5602 106.236 65.961C106.292 66.0927 106.222 66.2393 106.285 66.3697C106.284 66.5971 106.282 66.8246 106.282 67.052C106.282 70.7199 106.28 74.3878 106.286 78.0564C106.287 78.2982 106.225 78.4266 105.998 78.5543C104.827 79.2138 103.675 79.9079 102.512 80.5812C101.348 81.255 100.177 81.9146 99.0138 82.5878C97.1577 83.6625 95.3055 84.7431 93.4513 85.8217C93.4005 85.8354 93.3659 85.8158 93.3614 85.7643C93.3523 85.6672 93.3575 85.5695 93.3575 85.4717C93.3575 81.7738 93.3575 78.0759 93.3562 74.378C93.3562 74.2607 93.3835 74.1395 93.3281 74.0255C93.3236 73.942 93.3184 73.8586 93.3138 73.7758C93.2597 73.6696 93.3288 73.5445 93.263 73.4409Z"/></svg>