<svg xmlns="http://www.w3.org/2000/svg" width="100" height="100" fill="none" viewBox="0 0 100 100"><circle cx="50" cy="50" r="49.5" fill="#fff" stroke="#E5E8EB"/><path fill="#1868B7" d="M35 30C35 28.3431 36.3431 27 38 27H70C71.6569 27 73 28.3431 73 30V78C73 79.6568 71.6569 81 70 81H38C36.3431 81 35 79.6569 35 78V30Z"/><path fill="#2BCDE4" d="M27 22C27 20.3431 28.3431 19 30 19H62C63.6569 19 65 20.3431 65 22V70C65 71.6568 63.6569 73 62 73H30C28.3431 73 27 71.6569 27 70V22Z"/><path fill="#1868B7" d="M32 26C32 24.8954 32.8954 24 34 24H58C59.1046 24 60 24.8954 60 26V52C60 53.1046 59.1046 54 58 54H34C32.8954 54 32 53.1046 32 52V26Z"/><path fill="#1868B7" d="M32 62.5C32 60.567 33.567 59 35.5 59H45.5C47.433 59 49 60.567 49 62.5C49 64.433 47.433 66 45.5 66H35.5C33.567 66 32 64.433 32 62.5Z"/></svg>